<svg xmlns="http://www.w3.org/2000/svg" width="375" viewBox="0 0 375 375" height="375" version="1.0"><defs><clipPath id="a"><path d="M 6 212 L 162 212 L 162 358 L 6 358 Z M 6 212"/></clipPath><clipPath id="b"><path d="M -24.03125 271.804688 L 107.164062 199.09375 L 179.878906 330.289062 L 48.679688 403.003906 Z M -24.03125 271.804688"/></clipPath><clipPath id="c"><path d="M -24.03125 271.804688 L 107.164062 199.09375 L 179.878906 330.289062 L 48.679688 403.003906 Z M -24.03125 271.804688"/></clipPath><clipPath id="d"><path d="M -24.03125 271.804688 L 107.164062 199.09375 L 179.878906 330.289062 L 48.679688 403.003906 Z M -24.03125 271.804688"/></clipPath><clipPath id="e"><path d="M 60.390625 91 L 337.140625 91 L 337.140625 284 L 60.390625 284 Z M 60.390625 91"/></clipPath></defs><g clip-path="url(#a)"><g clip-path="url(#b)"><g clip-path="url(#c)"><g clip-path="url(#d)"><path d="M 78.949219 214.746094 C 73.515625 217.757812 70.417969 223.222656 69.234375 230.246094 L 43.878906 276.5 L 24.332031 287.332031 C 7.597656 296.605469 1.335938 317.578125 10.460938 334.042969 L 14.023438 340.46875 C 23.148438 356.9375 44.25 362.742188 60.984375 353.464844 L 80.53125 342.632812 L 132.511719 345.675781 C 139.378906 348.660156 145.945312 349.078125 151.675781 345.902344 C 170.097656 335.695312 161.617188 297.34375 143.527344 264.703125 C 125.4375 232.066406 97.371094 204.539062 78.949219 214.746094 Z M 79.574219 330.425781 C 78.433594 330.324219 77.425781 330.53125 76.328125 331.136719 L 55.125 342.890625 C 44.253906 348.914062 30.785156 345.074219 25.054688 334.738281 L 21.496094 328.3125 C 15.617188 317.710938 19.621094 304.539062 30.519531 298.496094 L 51.726562 286.746094 C 52.554688 286.285156 53.53125 285.394531 54.050781 284.371094 L 70.585938 253.960938 C 73.480469 267.269531 79.441406 282.128906 87.097656 295.945312 C 94.828125 309.894531 104.332031 322.933594 114.109375 332.492188 Z M 145.625 335.046875 C 139.039062 338.699219 119.015625 325.117188 101.191406 295.484375 L 108.074219 291.667969 C 110.859375 290.125 111.980469 286.214844 110.554688 283.015625 C 108.851562 279.933594 104.953125 278.839844 101.902344 280.53125 L 95.019531 284.34375 C 79.320312 253.496094 78.433594 229.347656 85.019531 225.699219 C 92.007812 221.824219 114.070312 237.316406 132.632812 270.8125 C 151.199219 304.308594 152.585938 331.1875 145.625 335.046875 Z M 145.625 335.046875"/></g></g></g></g><g clip-path="url(#e)"><path d="M 314.285156 91.515625 L 83.246094 91.515625 C 70.640625 91.515625 60.390625 101.769531 60.390625 114.371094 L 60.390625 180.589844 C 60.390625 193.195312 70.640625 203.445312 83.246094 203.445312 L 255.527344 203.445312 L 255.527344 221.046875 C 243.660156 221.046875 236.664062 229.503906 236.664062 238.707031 C 236.664062 247.570312 243.3125 256.367188 255.527344 256.367188 C 255.527344 264.394531 255.527344 268.667969 255.527344 276.890625 C 255.527344 280.332031 258.316406 283.125 261.757812 283.125 L 317.492188 283.125 C 320.9375 283.125 323.726562 280.332031 323.726562 276.890625 C 323.726562 268.226562 323.726562 240.472656 323.726562 232.164062 C 323.726562 220.726562 314.421875 211.421875 302.984375 211.421875 L 290.847656 211.421875 L 290.847656 203.445312 L 314.285156 203.445312 C 326.886719 203.445312 337.140625 193.195312 337.140625 180.59375 L 337.140625 114.371094 C 337.140625 101.769531 326.886719 91.515625 314.285156 91.515625 Z M 311.257812 270.65625 L 267.992188 270.65625 L 267.992188 264.246094 L 311.257812 264.246094 Z M 302.984375 223.886719 C 307.546875 223.886719 311.261719 227.601562 311.261719 232.164062 L 311.261719 251.78125 L 267.992188 251.78125 L 267.992188 250.132812 C 267.992188 246.691406 265.203125 243.902344 261.757812 243.902344 L 254.324219 243.902344 C 251.460938 243.902344 249.128906 241.570312 249.128906 238.707031 C 249.128906 235.84375 251.460938 233.511719 254.324219 233.511719 L 261.757812 233.511719 C 265.203125 233.511719 267.992188 230.71875 267.992188 227.277344 C 267.992188 219.457031 267.992188 196.867188 267.992188 189.109375 C 267.992188 186.242188 270.324219 183.914062 273.1875 183.914062 C 276.050781 183.914062 278.382812 186.242188 278.382812 189.109375 C 278.382812 205.972656 278.382812 200.894531 278.382812 217.652344 C 278.382812 221.097656 281.171875 223.886719 284.613281 223.886719 Z M 324.671875 180.589844 C 324.671875 186.320312 320.011719 190.980469 314.285156 190.980469 L 290.847656 190.980469 L 290.847656 189.109375 C 290.847656 179.371094 282.925781 171.449219 273.1875 171.449219 C 263.449219 171.449219 255.527344 179.371094 255.527344 189.109375 L 255.527344 190.980469 L 83.246094 190.980469 C 77.515625 190.980469 72.855469 186.320312 72.855469 180.589844 L 72.855469 114.371094 C 72.855469 108.640625 77.515625 103.980469 83.246094 103.980469 L 314.285156 103.980469 C 320.011719 103.980469 324.671875 108.640625 324.671875 114.371094 Z M 324.671875 180.589844"/></g><path d="M 113.382812 129.644531 L 107.675781 129.644531 C 106.179688 129.644531 105.019531 130.804688 105.019531 132.304688 L 105.019531 160.824219 C 105.019531 162.273438 106.179688 163.484375 107.675781 163.484375 L 113.382812 163.484375 C 122.710938 163.484375 130.25 155.894531 130.25 146.515625 C 130.25 137.234375 122.710938 129.644531 113.382812 129.644531 Z M 113.382812 158.117188 L 110.382812 158.117188 L 110.382812 135.011719 L 113.382812 135.011719 C 119.761719 135.011719 124.886719 140.183594 124.886719 146.515625 C 124.886719 152.945312 119.761719 158.070312 113.382812 158.117188 Z M 113.382812 158.117188"/><path d="M 154.183594 128.679688 C 144.886719 128.679688 137.554688 136.515625 137.554688 146.082031 C 137.554688 156.101562 145.347656 163.484375 154.183594 163.484375 C 163.03125 163.484375 170.621094 155.617188 170.621094 146.082031 C 170.621094 136.949219 163.429688 128.679688 154.183594 128.679688 Z M 154.183594 157.972656 C 148.136719 157.972656 143.066406 152.734375 143.066406 146.082031 C 143.066406 139.765625 147.730469 134.1875 154.183594 134.1875 C 160.300781 134.1875 165.109375 139.730469 165.109375 146.082031 C 165.109375 152.832031 159.832031 157.972656 154.183594 157.972656 Z M 154.183594 157.972656"/><path d="M 201.902344 130.128906 C 200.453125 130.128906 199.292969 131.335938 199.292969 132.738281 L 199.292969 152.65625 L 183.679688 131.046875 C 182.238281 129.015625 178.785156 130.070312 178.941406 132.691406 C 178.941406 132.738281 178.941406 132.738281 178.941406 132.738281 L 178.941406 160.824219 C 178.941406 162.277344 180.101562 163.484375 181.597656 163.484375 C 183 163.484375 184.210938 162.277344 184.210938 160.824219 L 184.210938 140.761719 L 199.679688 162.226562 C 199.726562 162.324219 199.824219 162.417969 199.917969 162.515625 C 201.570312 164.496094 204.5625 163.183594 204.5625 160.824219 L 204.5625 132.738281 C 204.5625 131.335938 203.351562 130.128906 201.902344 130.128906 Z M 201.902344 130.128906"/><path d="M 230.089844 131.382812 C 229.144531 129.070312 225.882812 129.148438 224.964844 131.382812 L 214.28125 159.855469 C 213.109375 163.253906 218 164.996094 219.308594 161.789062 L 221.679688 155.507812 L 233.425781 155.507812 L 235.792969 161.789062 C 236.351562 163.324219 238.101562 163.769531 239.175781 163.335938 C 240.578125 162.804688 241.257812 161.257812 240.773438 159.855469 Z M 223.613281 150.191406 L 227.527344 139.796875 L 231.445312 150.191406 Z M 223.613281 150.191406"/><path d="M 263.257812 129.644531 L 242.613281 129.644531 C 239.03125 129.644531 239.160156 135.011719 242.613281 135.011719 L 250.253906 135.011719 L 250.253906 160.824219 C 250.253906 164.328125 255.570312 164.367188 255.570312 160.824219 L 255.570312 135.011719 L 263.257812 135.011719 C 264.707031 135.011719 265.914062 133.753906 265.914062 132.304688 C 265.914062 130.804688 264.707031 129.644531 263.257812 129.644531 Z M 263.257812 129.644531"/><path d="M 292.359375 135.011719 C 293.761719 135.011719 295.019531 133.800781 295.019531 132.304688 C 295.019531 130.804688 293.761719 129.644531 292.359375 129.644531 L 276.699219 129.644531 C 276.601562 129.644531 276.601562 129.644531 276.601562 129.644531 L 276.554688 129.644531 C 275.054688 129.644531 273.894531 130.804688 273.894531 132.304688 L 273.894531 160.824219 C 273.894531 162.273438 275.054688 163.484375 276.554688 163.484375 L 276.601562 163.433594 C 276.601562 163.433594 276.601562 163.484375 276.699219 163.484375 L 292.359375 163.484375 C 293.761719 163.484375 295.019531 162.273438 295.019531 160.824219 C 295.019531 159.328125 293.761719 158.117188 292.359375 158.117188 L 279.261719 158.117188 L 279.261719 149.222656 L 290.523438 149.222656 C 291.972656 149.222656 293.183594 148.015625 293.183594 146.515625 C 293.183594 145.113281 291.972656 143.859375 290.523438 143.859375 L 279.261719 143.859375 L 279.261719 135.011719 Z M 292.359375 135.011719"/></svg>