<svg xmlns="http://www.w3.org/2000/svg" width="375" viewBox="0 0 375 375" height="375" version="1.0"><path d="M 281.980469 182.8125 C 295.570312 182.8125 306.589844 193.832031 306.589844 207.421875 C 306.589844 221.011719 295.570312 232.03125 281.980469 232.03125 C 268.386719 232.03125 257.371094 221.011719 257.371094 207.421875 C 257.371094 193.832031 268.386719 182.8125 281.980469 182.8125 Z M 251.65625 244.042969 C 265.246094 244.042969 276.265625 255.0625 276.265625 268.652344 C 276.265625 282.242188 265.246094 293.261719 251.65625 293.261719 C 238.066406 293.261719 227.046875 282.242188 227.046875 268.652344 C 227.046875 255.0625 238.066406 244.042969 251.65625 244.042969 Z M 212.398438 297.800781 L 157.027344 297.800781 C 140.183594 297.800781 129.636719 311.71875 129.636719 329.148438 L 129.636719 372.070312 L 148.53125 372.070312 L 148.53125 334.128906 C 148.53125 332.371094 149.996094 331.199219 151.460938 331.199219 C 153.21875 331.199219 154.390625 332.371094 154.390625 334.128906 L 154.390625 371.921875 L 215.183594 371.921875 L 215.183594 334.128906 C 215.183594 332.371094 216.648438 331.199219 218.113281 331.199219 C 219.871094 331.199219 221.042969 332.664062 221.042969 334.128906 L 221.042969 371.921875 L 239.9375 371.921875 L 239.9375 329.296875 C 240.230469 311.71875 229.539062 297.800781 212.398438 297.800781 Z M 219.285156 182.8125 C 232.875 182.8125 243.894531 193.832031 243.894531 207.421875 C 243.894531 221.011719 232.875 232.03125 219.285156 232.03125 C 205.691406 232.03125 194.675781 221.011719 194.675781 207.421875 C 194.675781 193.832031 205.691406 182.8125 219.285156 182.8125 Z M 291.648438 268.652344 C 291.648438 282.273438 302.632812 293.261719 316.257812 293.261719 C 329.878906 293.261719 340.867188 282.273438 340.867188 268.652344 C 340.867188 255.027344 329.878906 244.042969 316.257812 244.042969 C 302.632812 244.042969 291.648438 255.027344 291.648438 268.652344 Z M 289.15625 297.800781 C 272.3125 297.800781 261.765625 311.71875 261.765625 329.148438 L 261.765625 372.070312 L 280.660156 372.070312 L 280.660156 334.128906 C 280.660156 332.371094 282.125 331.199219 283.589844 331.199219 C 285.347656 331.199219 286.519531 332.371094 286.519531 334.128906 L 286.519531 371.921875 L 347.3125 371.921875 L 347.3125 334.128906 C 347.3125 332.371094 348.777344 331.199219 350.242188 331.199219 C 352 331.199219 353.171875 332.664062 353.171875 334.128906 L 353.171875 371.921875 L 372.066406 371.921875 L 372.066406 329.296875 C 372.359375 311.570312 361.667969 297.65625 344.675781 297.65625 L 289.15625 297.65625 Z M 58.296875 244.042969 C 71.886719 244.042969 82.90625 255.0625 82.90625 268.652344 C 82.90625 282.242188 71.886719 293.261719 58.296875 293.261719 C 44.707031 293.261719 33.6875 282.242188 33.6875 268.652344 C 33.6875 255.0625 44.707031 244.042969 58.296875 244.042969 Z M 21.675781 371.921875 L 21.675781 334.128906 C 21.675781 332.371094 23.140625 331.199219 24.605469 331.199219 C 26.363281 331.199219 27.535156 332.371094 27.535156 334.128906 L 27.535156 371.921875 L 88.328125 371.921875 L 88.328125 334.128906 C 88.328125 332.371094 89.792969 331.199219 91.257812 331.199219 C 93.015625 331.199219 94.1875 332.664062 94.1875 334.128906 L 94.1875 371.921875 L 113.082031 371.921875 L 113.082031 329.296875 C 113.375 311.570312 102.683594 297.65625 85.691406 297.65625 L 30.320312 297.65625 C 13.472656 297.65625 2.925781 311.570312 2.925781 329.003906 L 2.925781 371.921875 Z M 160.105469 268.652344 C 160.105469 282.273438 171.089844 293.261719 184.714844 293.261719 C 198.335938 293.261719 209.324219 282.273438 209.324219 268.652344 C 209.324219 255.027344 198.335938 244.042969 184.714844 244.042969 C 171.089844 244.042969 160.105469 255.027344 160.105469 268.652344 Z M 89.792969 182.8125 C 103.382812 182.8125 114.402344 193.832031 114.402344 207.421875 C 114.402344 221.011719 103.382812 232.03125 89.792969 232.03125 C 76.203125 232.03125 65.183594 221.011719 65.183594 207.421875 C 65.183594 193.832031 76.199219 182.8125 89.792969 182.8125 Z M 156.296875 182.8125 C 169.886719 182.8125 180.90625 193.832031 180.90625 207.421875 C 180.90625 221.011719 169.886719 232.03125 156.296875 232.03125 C 142.703125 232.03125 131.6875 221.011719 131.6875 207.421875 C 131.6875 193.832031 142.703125 182.8125 156.296875 182.8125 Z M 123.191406 244.042969 C 136.78125 244.042969 147.800781 255.0625 147.800781 268.652344 C 147.800781 282.242188 136.78125 293.261719 123.191406 293.261719 C 109.597656 293.261719 98.582031 282.242188 98.582031 268.652344 C 98.582031 255.0625 109.597656 244.042969 123.191406 244.042969 Z M 187.5 2.929688 C 145.5 2.929688 111.328125 37.101562 111.328125 79.101562 C 111.328125 121.101562 145.5 155.273438 187.5 155.273438 C 229.5 155.273438 263.671875 121.101562 263.671875 79.101562 C 263.671875 37.101562 229.5 2.929688 187.5 2.929688 Z M 243.832031 49.902344 L 223.21875 49.902344 C 221.523438 42.050781 219.140625 34.796875 216.121094 28.488281 C 214.695312 25.503906 213.152344 22.800781 211.511719 20.355469 C 225.457031 26.078125 236.921875 36.621094 243.832031 49.902344 Z M 250.976562 79.101562 C 250.976562 85.269531 250.074219 91.230469 248.425781 96.875 L 225.152344 96.875 C 225.859375 91.125 226.230469 85.167969 226.230469 79.101562 C 226.230469 73.480469 225.90625 67.953125 225.296875 62.597656 L 248.785156 62.597656 C 250.207031 67.863281 250.976562 73.394531 250.976562 79.101562 Z M 187.5 140.460938 C 179.066406 140.460938 169.972656 128.636719 165.082031 109.570312 L 209.917969 109.570312 C 205.023438 128.636719 195.933594 140.460938 187.5 140.460938 Z M 162.636719 96.875 C 161.886719 91.328125 161.464844 85.382812 161.464844 79.101562 C 161.464844 73.296875 161.824219 67.777344 162.46875 62.597656 L 212.53125 62.597656 C 213.175781 67.777344 213.535156 73.296875 213.535156 79.101562 C 213.535156 85.386719 213.113281 91.328125 212.363281 96.875 Z M 124.023438 79.101562 C 124.023438 73.394531 124.792969 67.863281 126.214844 62.597656 L 149.703125 62.597656 C 149.09375 67.953125 148.769531 73.480469 148.769531 79.101562 C 148.769531 85.167969 149.140625 91.125 149.847656 96.875 L 126.574219 96.875 C 124.925781 91.230469 124.023438 85.269531 124.023438 79.101562 Z M 187.5 17.742188 C 196.117188 17.742188 205.417969 30.09375 210.230469 49.902344 L 164.769531 49.902344 C 169.582031 30.097656 178.878906 17.742188 187.5 17.742188 Z M 163.488281 20.355469 C 161.847656 22.796875 160.300781 25.503906 158.875 28.484375 C 155.855469 34.796875 153.472656 42.050781 151.777344 49.902344 L 131.167969 49.902344 C 138.078125 36.621094 149.542969 26.078125 163.488281 20.355469 Z M 131.832031 109.570312 L 152.050781 109.570312 C 153.726562 116.933594 156.019531 123.746094 158.878906 129.714844 C 160.304688 132.699219 161.847656 135.402344 163.488281 137.847656 C 149.988281 132.308594 138.804688 122.257812 131.832031 109.570312 Z M 211.511719 137.847656 C 213.152344 135.40625 214.699219 132.699219 216.125 129.71875 C 218.980469 123.746094 221.273438 116.9375 222.949219 109.570312 L 243.167969 109.570312 C 236.195312 122.257812 225.011719 132.308594 211.511719 137.847656 Z M 211.511719 137.847656"/></svg>