<svg xmlns="http://www.w3.org/2000/svg" width="375" viewBox="0 0 375 375" height="375" version="1.0"><defs><clipPath id="a"><path d="M 44.074219 85 L 102 85 L 102 244 L 44.074219 244 Z M 44.074219 85"/></clipPath><clipPath id="b"><path d="M 72 257 L 159 257 L 159 286.5 L 72 286.5 Z M 72 257"/></clipPath><clipPath id="c"><path d="M 215 257 L 302 257 L 302 286.5 L 215 286.5 Z M 215 257"/></clipPath><clipPath id="d"><path d="M 273 85 L 330.574219 85 L 330.574219 244 L 273 244 Z M 273 85"/></clipPath></defs><path d="M 236.722656 192.167969 C 236.261719 192.566406 225.523438 202.078125 225.523438 219.648438 L 225.523438 243.523438 C 225.523438 246.160156 227.660156 248.300781 230.300781 248.300781 C 232.941406 248.300781 235.074219 246.160156 235.074219 243.523438 L 235.074219 219.648438 C 235.074219 206.59375 242.679688 199.652344 243.226562 199.152344 L 276.648438 165.726562 C 278.546875 163.828125 280.910156 162.730469 283.304688 162.636719 C 285.742188 162.53125 287.832031 163.410156 289.574219 165.148438 C 291.3125 166.890625 292.1875 169.058594 292.085938 171.417969 C 291.992188 173.8125 290.894531 176.179688 288.996094 178.074219 L 265.125 201.949219 C 263.257812 203.816406 263.257812 206.832031 265.125 208.699219 C 266.992188 210.566406 270.007812 210.566406 271.875 208.699219 L 295.75 184.832031 C 299.347656 181.234375 301.433594 176.609375 301.632812 171.804688 C 301.839844 166.785156 299.957031 162.019531 296.328125 158.394531 C 292.699219 154.773438 287.996094 152.90625 282.914062 153.089844 C 278.117188 153.289062 273.488281 155.378906 269.898438 158.972656 Z M 236.722656 192.167969"/><g clip-path="url(#a)"><path d="M 96.601562 243.523438 C 97.824219 243.523438 99.042969 243.058594 99.976562 242.125 C 101.84375 240.257812 101.84375 237.242188 99.976562 235.375 L 61.503906 196.925781 C 61.183594 196.644531 53.625 189.902344 53.625 176.675781 L 53.625 105.050781 C 53.625 99.785156 57.90625 95.5 63.175781 95.5 C 68.441406 95.5 72.726562 99.78125 72.726562 105.050781 L 72.726562 142.855469 C 72.726562 145.488281 74.859375 147.628906 77.5 147.628906 C 80.140625 147.628906 82.273438 145.488281 82.273438 142.855469 L 82.273438 105.050781 C 82.273438 94.515625 73.707031 85.949219 63.175781 85.949219 C 52.640625 85.949219 44.074219 94.515625 44.074219 105.050781 L 44.074219 176.675781 C 44.074219 194.503906 54.863281 203.8125 55.023438 203.925781 L 93.222656 242.125 C 94.15625 243.058594 95.378906 243.523438 96.601562 243.523438 Z M 96.601562 243.523438"/></g><path d="M 73.015625 171.804688 C 73.214844 176.609375 75.304688 181.234375 78.898438 184.824219 L 102.773438 208.699219 C 104.640625 210.566406 107.660156 210.566406 109.527344 208.699219 C 111.394531 206.832031 111.394531 203.816406 109.527344 201.949219 L 85.652344 178.070312 C 83.753906 176.179688 82.65625 173.816406 82.5625 171.417969 C 82.460938 169.058594 83.335938 166.890625 85.074219 165.148438 C 86.816406 163.410156 88.921875 162.53125 91.34375 162.636719 C 93.738281 162.734375 96.105469 163.832031 98 165.726562 L 131.648438 199.363281 C 131.96875 199.652344 139.574219 206.59375 139.574219 219.648438 L 139.574219 243.523438 C 139.574219 246.160156 141.707031 248.300781 144.347656 248.300781 C 146.988281 248.300781 149.125 246.160156 149.125 243.523438 L 149.125 219.648438 C 149.125 202.078125 138.386719 192.566406 138.175781 192.398438 L 104.75 158.972656 C 101.160156 155.378906 96.53125 153.292969 91.734375 153.089844 C 86.632812 152.914062 81.945312 154.773438 78.320312 158.394531 C 74.691406 162.019531 72.8125 166.785156 73.015625 171.804688 Z M 73.015625 171.804688"/><path d="M 187.324219 62.074219 C 192.589844 62.074219 196.875 66.359375 196.875 71.625 C 196.875 74.261719 199.007812 76.398438 201.648438 76.398438 C 204.289062 76.398438 206.425781 74.261719 206.425781 71.625 C 206.425781 62.753906 200.316406 55.335938 192.097656 53.203125 L 192.097656 52.523438 C 192.097656 49.890625 189.964844 47.75 187.324219 47.75 C 184.683594 47.75 182.550781 49.890625 182.550781 52.523438 L 182.550781 53.203125 C 174.332031 55.335938 168.226562 62.753906 168.226562 71.625 C 168.226562 82.160156 176.792969 90.726562 187.324219 90.726562 C 192.589844 90.726562 196.875 95.007812 196.875 100.273438 C 196.875 105.542969 192.59375 109.824219 187.324219 109.824219 C 182.058594 109.824219 177.773438 105.542969 177.773438 100.273438 C 177.773438 97.640625 175.640625 95.5 173 95.5 C 170.359375 95.5 168.226562 97.640625 168.226562 100.273438 C 168.226562 109.148438 174.332031 116.5625 182.550781 118.695312 L 182.550781 119.375 C 182.550781 122.011719 184.683594 124.148438 187.324219 124.148438 C 189.964844 124.148438 192.097656 122.011719 192.097656 119.375 L 192.097656 118.695312 C 200.316406 116.5625 206.425781 109.148438 206.425781 100.273438 C 206.425781 89.742188 197.859375 81.175781 187.324219 81.175781 C 182.058594 81.175781 177.773438 76.890625 177.773438 71.625 C 177.773438 66.359375 182.058594 62.074219 187.324219 62.074219 Z M 187.324219 62.074219"/><g clip-path="url(#b)"><path d="M 153.898438 257.851562 L 77.5 257.851562 C 74.859375 257.851562 72.726562 259.988281 72.726562 262.625 L 72.726562 281.722656 C 72.726562 284.359375 74.859375 286.5 77.5 286.5 C 80.140625 286.5 82.273438 284.359375 82.273438 281.722656 L 82.273438 267.398438 L 149.125 267.398438 L 149.125 281.722656 C 149.125 284.359375 151.257812 286.5 153.898438 286.5 C 156.539062 286.5 158.675781 284.359375 158.675781 281.722656 L 158.675781 262.625 C 158.675781 259.988281 156.539062 257.851562 153.898438 257.851562 Z M 153.898438 257.851562"/></g><g clip-path="url(#c)"><path d="M 297.148438 257.851562 L 220.75 257.851562 C 218.109375 257.851562 215.976562 259.988281 215.976562 262.625 L 215.976562 281.722656 C 215.976562 284.359375 218.109375 286.5 220.75 286.5 C 223.390625 286.5 225.523438 284.359375 225.523438 281.722656 L 225.523438 267.398438 L 292.375 267.398438 L 292.375 281.722656 C 292.375 284.359375 294.507812 286.5 297.148438 286.5 C 299.789062 286.5 301.925781 284.359375 301.925781 281.722656 L 301.925781 262.625 C 301.925781 259.988281 299.789062 257.851562 297.148438 257.851562 Z M 297.148438 257.851562"/></g><path d="M 187.324219 19.101562 C 150.460938 19.101562 120.472656 49.085938 120.472656 85.949219 C 120.472656 122.8125 150.460938 152.800781 187.324219 152.800781 C 224.1875 152.800781 254.175781 122.8125 254.175781 85.949219 C 254.175781 49.085938 224.1875 19.101562 187.324219 19.101562 Z M 187.324219 143.25 C 155.730469 143.25 130.023438 117.546875 130.023438 85.949219 C 130.023438 54.355469 155.730469 28.648438 187.324219 28.648438 C 218.921875 28.648438 244.625 54.355469 244.625 85.949219 C 244.625 117.546875 218.921875 143.25 187.324219 143.25 Z M 187.324219 143.25"/><g clip-path="url(#d)"><path d="M 311.476562 85.949219 C 300.941406 85.949219 292.375 94.515625 292.375 105.050781 L 292.375 142.851562 C 292.375 145.488281 294.507812 147.628906 297.148438 147.628906 C 299.789062 147.628906 301.925781 145.488281 301.925781 142.851562 L 301.925781 105.050781 C 301.925781 99.78125 306.207031 95.5 311.476562 95.5 C 316.742188 95.5 321.023438 99.78125 321.023438 105.050781 L 321.023438 176.675781 C 321.023438 189.902344 313.464844 196.644531 312.875 197.175781 L 274.671875 235.375 C 272.804688 237.242188 272.804688 240.257812 274.671875 242.125 C 275.605469 243.058594 276.828125 243.523438 278.050781 243.523438 C 279.273438 243.523438 280.496094 243.058594 281.425781 242.125 L 319.328125 204.199219 C 319.789062 203.8125 330.574219 194.503906 330.574219 176.675781 L 330.574219 105.050781 C 330.574219 94.515625 322.007812 85.949219 311.476562 85.949219 Z M 311.476562 85.949219"/></g><path d="M 273.273438 85.949219 C 273.273438 38.558594 234.714844 0 187.324219 0 C 139.933594 0 101.375 38.558594 101.375 85.949219 C 101.375 133.339844 139.933594 171.898438 187.324219 171.898438 C 234.714844 171.898438 273.273438 133.339844 273.273438 85.949219 Z M 187.324219 162.351562 C 145.199219 162.351562 110.925781 128.074219 110.925781 85.949219 C 110.925781 43.824219 145.199219 9.550781 187.324219 9.550781 C 229.449219 9.550781 263.722656 43.824219 263.722656 85.949219 C 263.722656 128.074219 229.449219 162.351562 187.324219 162.351562 Z M 187.324219 162.351562"/><g><g><g><path d="M 30.1875 0 L 20.265625 0 L 19.375 -5.234375 L 19.328125 -5.390625 L 14.53125 -5.484375 L 10.515625 -5.28125 L 9.6875 0 L 0.09375 0 L 9.6875 -31.65625 L 21.53125 -31.65625 Z M 17.859375 -12.53125 L 15.703125 -22.90625 L 15.125 -22.90625 L 12.375 -12.53125 L 15.125 -12.484375 Z M 17.859375 -12.53125" transform="translate(92.607 341.374)"/></g></g></g><g><g><g><path d="M 15.21875 0 L 15.703125 -12.921875 C 15.703125 -14.910156 14.9375 -15.90625 13.40625 -15.90625 C 12.65625 -15.90625 11.890625 -15.675781 11.109375 -15.21875 L 11.109375 -10.28125 L 11.5 0 L 1.953125 0 L 2.390625 -9.296875 L 2.0625 -22.5625 L 11.109375 -23.203125 L 11.109375 -19.765625 L 11.453125 -19.765625 C 13.148438 -21.460938 15.054688 -22.671875 17.171875 -23.390625 C 19.617188 -23.390625 21.488281 -22.832031 22.78125 -21.71875 C 24.070312 -20.613281 24.679688 -19.019531 24.609375 -16.9375 L 24.421875 -10.28125 L 24.765625 0 Z M 15.21875 0" transform="translate(123.284 341.374)"/></g></g></g><g><g><g><path d="M 9.296875 -18.890625 L 11.796875 -9.25 L 12.28125 -9.25 L 14.578125 -18.015625 L 15.515625 -23.09375 L 23.53125 -23.09375 L 16.78125 -2.390625 C 16.03125 -0.140625 15.132812 1.707031 14.09375 3.15625 C 13.050781 4.601562 11.726562 5.820312 10.125 6.8125 C 8.53125 7.8125 6.460938 8.707031 3.921875 9.5 L 3.28125 9.390625 C 1.644531 7.859375 0.257812 5.96875 -0.875 3.71875 L -0.53125 2.890625 C 2.46875 2.429688 5.238281 1.46875 7.78125 0 L -0.59375 -22.953125 L 8.515625 -23.296875 Z M 9.296875 -18.890625" transform="translate(149.9 341.374)"/></g></g></g><g><g><g><path d="M 25.109375 -30.984375 L 24.5625 -23.828125 L 18.109375 -24.125 L 17.515625 -24.125 L 17.28125 -10.28125 L 17.671875 0 L 7.875 0 L 8.375 -9.296875 L 8.125 -24.125 L 7.484375 -24.125 L 0.984375 -23.828125 L 0.390625 -24.515625 L 0.9375 -31.65625 L 24.5625 -31.65625 Z M 25.109375 -30.984375" transform="translate(179.549 341.374)"/></g></g></g><g><g><g><path d="M 2.546875 -9.296875 L 2.203125 -22.5625 L 11.703125 -23.203125 L 11.25 -10.28125 L 11.640625 0 L 2.109375 0 Z M 7.09375 -35.625 C 8.53125 -35.625 9.644531 -35.210938 10.4375 -34.390625 C 11.238281 -33.578125 11.640625 -32.441406 11.640625 -30.984375 C 11.640625 -29.410156 11.195312 -28.164062 10.3125 -27.25 C 9.4375 -26.34375 8.234375 -25.890625 6.703125 -25.890625 C 5.203125 -25.890625 4.054688 -26.285156 3.265625 -27.078125 C 2.484375 -27.878906 2.09375 -29.03125 2.09375 -30.53125 C 2.09375 -32.101562 2.539062 -33.34375 3.4375 -34.25 C 4.34375 -35.164062 5.5625 -35.625 7.09375 -35.625 Z M 7.09375 -35.625" transform="translate(204.941 341.374)"/></g></g></g><g><g><g><path d="M 28.53125 0 L 29.015625 -12.96875 C 29.015625 -14.957031 28.25 -15.953125 26.71875 -15.953125 C 26 -15.953125 25.234375 -15.738281 24.421875 -15.3125 L 24.265625 -10.28125 L 24.671875 0 L 15.21875 0 L 15.703125 -12.96875 C 15.703125 -14.957031 14.921875 -15.953125 13.359375 -15.953125 C 12.609375 -15.953125 11.828125 -15.722656 11.015625 -15.265625 L 11.015625 -10.28125 L 11.40625 0 L 1.953125 0 L 2.390625 -9.296875 L 2.0625 -22.5625 L 11.015625 -23.203125 L 11.015625 -19.765625 L 11.359375 -19.765625 C 13.085938 -21.492188 14.992188 -22.703125 17.078125 -23.390625 C 18.867188 -23.390625 20.359375 -23.078125 21.546875 -22.453125 C 22.742188 -21.835938 23.570312 -20.941406 24.03125 -19.765625 L 24.265625 -19.765625 C 25.960938 -21.429688 28.019531 -22.640625 30.4375 -23.390625 C 32.851562 -23.390625 34.695312 -22.832031 35.96875 -21.71875 C 37.238281 -20.613281 37.859375 -19.019531 37.828125 -16.9375 L 37.640625 -10.28125 L 37.96875 0 Z M 28.53125 0" transform="translate(218.836 341.374)"/></g></g></g><g><g><g><path d="M 21.625 -9.59375 L 9.5 -9.5 C 9.789062 -8.351562 10.34375 -7.507812 11.15625 -6.96875 C 11.96875 -6.4375 13.09375 -6.171875 14.53125 -6.171875 C 16.132812 -6.171875 18.46875 -6.578125 21.53125 -7.390625 L 22.21875 -6.90625 L 20.75 -0.4375 C 18.175781 0.25 15.78125 0.59375 13.5625 0.59375 C 9.507812 0.59375 6.347656 -0.484375 4.078125 -2.640625 C 1.816406 -4.796875 0.6875 -7.765625 0.6875 -11.546875 C 0.6875 -15.296875 1.757812 -18.25 3.90625 -20.40625 C 6.0625 -22.5625 9.015625 -23.640625 12.765625 -23.640625 C 16.003906 -23.640625 18.507812 -22.789062 20.28125 -21.09375 C 22.0625 -19.394531 22.953125 -17.03125 22.953125 -14 C 22.953125 -13.019531 22.851562 -11.957031 22.65625 -10.8125 Z M 14.875 -14.96875 C 14.875 -16.695312 14.140625 -17.5625 12.671875 -17.5625 C 10.878906 -17.5625 9.785156 -16.40625 9.390625 -14.09375 L 14.78125 -14.296875 Z M 14.875 -14.96875" transform="translate(258.662 341.374)"/></g></g></g></svg>