<svg xmlns="http://www.w3.org/2000/svg" width="375" viewBox="0 0 375 375" height="375" version="1.0"><defs><clipPath id="a"><path d="M 33 10.4375 L 342 10.4375 L 342 364.4375 L 33 364.4375 Z M 33 10.4375"/></clipPath></defs><path fill="#E7ECED" d="M 187.4375 58.410156 C 195.597656 58.410156 202.277344 65.089844 202.277344 73.25 C 202.277344 81.410156 195.597656 88.085938 187.4375 88.085938 C 179.277344 88.085938 172.601562 81.410156 172.601562 73.25 C 172.601562 65.089844 179.277344 58.410156 187.4375 58.410156 Z M 187.4375 58.410156"/><path fill="#AFB6BB" d="M 161.472656 236.460938 L 213.402344 236.460938 L 213.402344 262.425781 L 161.472656 262.425781 Z M 161.472656 236.460938"/><path fill="#7C8287" d="M 161.472656 262.425781 L 213.402344 262.425781 L 213.402344 310.648438 L 161.472656 310.648438 Z M 161.472656 262.425781"/><path fill="#E7ECED" d="M 139.214844 162.273438 L 139.214844 140.019531 L 235.660156 140.019531 L 235.660156 162.273438 L 246.789062 162.273438 L 246.789062 191.949219 L 128.085938 191.949219 L 128.085938 162.273438 Z M 139.214844 162.273438"/><path fill="#C7CAC7" d="M 235.660156 288.394531 L 235.660156 310.652344 L 213.402344 310.652344 L 213.402344 236.464844 L 161.472656 236.464844 L 161.472656 310.652344 L 139.214844 310.652344 L 139.214844 288.394531 L 128.085938 288.394531 L 128.085938 191.949219 L 246.789062 191.949219 L 246.789062 288.394531 Z M 235.660156 288.394531"/><path fill="#8A9095" d="M 57.609375 310.652344 L 317.269531 310.652344 L 317.269531 332.90625 L 57.609375 332.90625 Z M 57.609375 310.652344"/><path fill="#AFB6BB" d="M 335.816406 340.328125 L 335.816406 358.875 L 39.0625 358.875 L 39.0625 340.328125 C 39.0625 336.246094 42.402344 332.90625 46.480469 332.90625 L 328.394531 332.90625 C 332.476562 332.90625 335.816406 336.246094 335.816406 340.328125 Z M 335.816406 340.328125"/><path fill="#E7ECED" d="M 235.660156 288.390625 L 309.847656 288.390625 L 309.847656 310.648438 L 235.660156 310.648438 Z M 235.660156 288.390625"/><path fill="#E7ECED" d="M 65.027344 288.394531 L 139.214844 288.394531 L 139.214844 310.652344 L 65.027344 310.652344 Z M 65.027344 288.394531"/><path fill="#E7ECED" d="M 246.789062 162.273438 L 235.660156 162.273438 L 235.660156 140.019531 L 309.847656 140.019531 L 309.847656 162.273438 Z M 246.789062 162.273438"/><path fill="#E7ECED" d="M 65.027344 140.019531 L 139.214844 140.019531 L 139.214844 162.273438 L 65.027344 162.273438 Z M 65.027344 140.019531"/><path fill="#A4A9AB" d="M 246.789062 162.273438 L 298.71875 162.273438 L 298.71875 288.394531 L 246.789062 288.394531 Z M 246.789062 162.273438"/><path fill="#A4A9AB" d="M 76.15625 162.273438 L 128.085938 162.273438 L 128.085938 288.394531 L 76.15625 288.394531 Z M 76.15625 162.273438"/><path fill="#A4A9AB" d="M 335.816406 121.472656 L 335.816406 140.019531 L 39.0625 140.019531 L 39.0625 121.472656 C 39.0625 117.390625 42.402344 114.050781 46.480469 114.050781 L 328.394531 114.050781 C 332.476562 114.050781 335.816406 117.390625 335.816406 121.472656 Z M 335.816406 121.472656"/><path fill="#E7ECED" d="M 306.140625 114.050781 L 68.738281 114.050781 L 187.4375 17.609375 Z M 202.277344 73.25 C 202.277344 65.089844 195.597656 58.410156 187.4375 58.410156 C 179.277344 58.410156 172.601562 65.089844 172.601562 73.25 C 172.601562 81.410156 179.277344 88.085938 187.4375 88.085938 C 195.597656 88.085938 202.277344 81.410156 202.277344 73.25 Z M 202.277344 73.25"/><path d="M 187.4375 52.847656 C 176.1875 52.847656 167.035156 62 167.035156 73.25 C 167.035156 84.5 176.1875 93.652344 187.4375 93.652344 C 198.6875 93.652344 207.839844 84.5 207.839844 73.25 C 207.839844 62 198.6875 52.847656 187.4375 52.847656 Z M 187.4375 82.523438 C 182.324219 82.523438 178.164062 78.363281 178.164062 73.25 C 178.164062 68.132812 182.324219 63.976562 187.4375 63.976562 C 192.550781 63.976562 196.710938 68.132812 196.710938 73.25 C 196.710938 78.363281 192.550781 82.523438 187.4375 82.523438 Z M 187.4375 82.523438"/><g clip-path="url(#a)"><path d="M 315.414062 167.839844 L 315.414062 145.582031 L 341.378906 145.582031 L 341.378906 121.472656 C 341.378906 114.3125 335.554688 108.488281 328.394531 108.488281 L 308.113281 108.488281 L 187.4375 10.4375 L 66.761719 108.488281 L 46.480469 108.488281 C 39.324219 108.488281 33.496094 114.3125 33.496094 121.472656 L 33.496094 145.582031 L 59.464844 145.582031 L 59.464844 167.839844 L 70.589844 167.839844 L 70.589844 282.832031 L 59.464844 282.832031 L 59.464844 305.085938 L 52.042969 305.085938 L 52.042969 327.34375 L 46.480469 327.34375 C 39.320312 327.34375 33.496094 333.167969 33.496094 340.328125 L 33.496094 364.4375 L 341.378906 364.4375 L 341.378906 340.328125 C 341.378906 333.167969 335.554688 327.34375 328.394531 327.34375 L 322.832031 327.34375 L 322.832031 305.085938 L 315.410156 305.085938 L 315.410156 282.832031 L 304.285156 282.832031 L 304.285156 167.839844 Z M 304.285156 156.710938 L 241.226562 156.710938 L 241.226562 145.582031 L 304.285156 145.582031 Z M 278.320312 266.140625 L 278.320312 167.839844 L 293.15625 167.839844 L 293.15625 282.832031 L 252.351562 282.832031 L 252.351562 167.839844 L 267.191406 167.839844 L 267.191406 266.136719 L 278.320312 266.136719 Z M 241.226562 282.832031 L 230.097656 282.832031 L 230.097656 305.085938 L 218.96875 305.085938 L 218.96875 230.898438 L 155.90625 230.898438 L 155.90625 305.085938 L 144.78125 305.085938 L 144.78125 282.832031 L 133.652344 282.832031 L 133.652344 197.515625 L 241.226562 197.515625 Z M 207.839844 256.863281 L 167.035156 256.863281 L 167.035156 242.027344 L 207.839844 242.027344 Z M 167.035156 267.992188 L 207.839844 267.992188 L 207.839844 305.085938 L 167.035156 305.085938 Z M 241.226562 186.386719 L 133.652344 186.386719 L 133.652344 167.839844 L 144.78125 167.839844 L 144.78125 145.582031 L 230.097656 145.582031 L 230.097656 167.839844 L 241.226562 167.839844 Z M 187.4375 24.777344 L 290.46875 108.488281 L 84.410156 108.488281 Z M 44.625 134.453125 L 44.625 121.472656 C 44.625 120.464844 45.476562 119.617188 46.480469 119.617188 L 328.394531 119.617188 C 329.402344 119.617188 330.25 120.464844 330.25 121.472656 L 330.25 134.453125 Z M 70.59375 145.582031 L 133.652344 145.582031 L 133.652344 156.710938 L 70.59375 156.710938 Z M 107.6875 266.140625 L 107.6875 167.839844 L 122.523438 167.839844 L 122.523438 282.832031 L 81.71875 282.832031 L 81.71875 167.839844 L 96.558594 167.839844 L 96.558594 266.136719 L 107.6875 266.136719 Z M 70.59375 293.957031 L 133.652344 293.957031 L 133.652344 305.085938 L 70.59375 305.085938 Z M 328.394531 338.472656 C 329.402344 338.472656 330.25 339.320312 330.25 340.328125 L 330.25 353.3125 L 44.625 353.3125 L 44.625 340.328125 C 44.625 339.320312 45.476562 338.472656 46.480469 338.472656 Z M 311.703125 316.214844 L 311.703125 327.34375 L 63.171875 327.34375 L 63.171875 316.214844 Z M 304.285156 305.085938 L 241.226562 305.085938 L 241.226562 293.960938 L 304.285156 293.960938 Z M 304.285156 305.085938"/></g><path d="M 176.308594 160.417969 L 198.566406 160.417969 L 198.566406 171.546875 L 176.308594 171.546875 Z M 176.308594 160.417969"/><path stroke-linecap="round" transform="matrix(8.52005 8.4598 -8.45512 8.51533 0 .824)" fill="none" d="M 0.500166 -0.0000562643 L 43.538275 -0.000107291" stroke="#000"/><path stroke-linecap="round" transform="rotate(135 197.342 73.72) scale(12.00427 12)" fill="none" d="M 0.499908 -0.0000575211 L 46.171233 -0.0000575211" stroke="#000"/></svg>